<?xml version="1.0" standalone="no"?>
<!DOCTYPE svg PUBLIC "-//W3C//DTD SVG 20010904//EN"
 "http://www.w3.org/TR/2001/REC-SVG-20010904/DTD/svg10.dtd">
<svg version="1.0" xmlns="http://www.w3.org/2000/svg"
 width="1024.000000pt" height="1024.000000pt" viewBox="0 0 1024.000000 1024.000000"
 preserveAspectRatio="xMidYMid meet">
<metadata>
Created by potrace 1.11, written by Peter Selinger 2001-2013
</metadata>
<g transform="translate(0.000000,1024.000000) scale(0.100000,-0.100000)"
fill="#000000" stroke="none">
<path d="M2 8448 l3 -1143 1410 -1132 c776 -622 1413 -1132 1417 -1132 10 -1
464 390 1451 1252 l469 410 24 -19 c14 -11 544 -460 1179 -999 l1154 -980 0
-70 c0 -38 -31 -902 -68 -1920 -37 -1017 -67 -1851 -66 -1853 2 -2 449 556
994 1239 l991 1243 0 1402 0 1403 -1416 1323 c-779 728 -1419 1324 -1423 1326
-3 1 -207 -211 -452 -470 -983 -1041 -1460 -1543 -1473 -1552 -10 -7 -544 349
-1922 1279 -1050 709 -1991 1344 -2092 1412 l-182 124 2 -1143z"/>
</g>
</svg>
